{"title":"Insaan Jaag Utha (1959)","uid":7151085,"size":1215667434,"categoryP":"video","categoryS":"hd___movies","magnet":"?xt=urn:btih:8aaa134536198521f5fc86b346cf137f12f3d677&amp;dn=Insaan+Jaag+Utha+%281959%29&amp;tr=udp%3A%2F%2Ftracker.openbittorrent.com%3A80&amp;tr=udp%3A%2F%2Fopen.demonii.com%3A1337&amp;tr=udp%3A%2F%2Ftracker.coppersurfer.tk%3A6969&amp;tr=udp%3A%2F%2Fexodus.desync.com%3A6969","seeders":0,"leechers":1,"uploader":"arsenal_rocks","files":3,"time":1333312123,"description":" &lt;a href=&quot;http://www.imdb.com/title/tt0052926/&quot; rel=&quot;nofollow&quot; target=&quot;_NEW&quot;&gt;http://www.imdb.com/title/tt0052926/&lt;/a&gt; &lt;a href=&quot;\nhttp://www.shotpix.com/images/19061304758402247152.jpg&quot; rel=&quot;nofollow&quot; target=&quot;_NEW&quot;&gt;\nhttp://www.shotpix.com/images/19061304758402247152.jpg&lt;/a&gt; &lt;a href=&quot;\nhttp://www.shotpix.com/images/53738683053506476577.jpg&quot; rel=&quot;nofollow&quot; target=&quot;_NEW&quot;&gt;\nhttp://www.shotpix.com/images/53738683053506476577.jpg&lt;/a&gt;\n\n\nGeneral\nComplete name                            : Insaan Jaag Utha (1959).avi\nFormat                                   : AVI\nFormat/Info                              : Audio Video Interleave\nFormat profile                           : OpenDML\nFile size                                : 1.13 GiB\nDuration                                 : 2h 21mn\nOverall bit rate                         : 1 148 Kbps\nWriting library                          : MPlayer\n\nVideo\nID                                       : 0\nFormat                                   : MPEG-4 Visual\nFormat profile                           : Advanced Simple@L5\nFormat settings, BVOP                    : 2\nFormat settings, QPel                    : No\nFormat settings, GMC                     : No warppoints\nFormat settings, Matrix                  : Default (H.263)\nMuxing mode                              : Packed bitstream\nCodec ID                                 : XVID\nCodec ID/Hint                            : XviD\nDuration                                 : 2h 21mn\nBit rate                                 : 950 Kbps\nWidth                                    : 640 pixels\nHeight                                   : 480 pixels\nDisplay aspect ratio                     : 4:3\nFrame rate                               : 25.000 fps\nColor space                              : YUV\nChroma subsampling                       : 4:2:0\nBit depth                                : 8 bits\nScan type                                : Progressive\nCompression mode                         : Lossy\nBits/(Pixel*Frame)                       : 0.124\nStream size                              : 959 MiB (83%)\nWriting library                          : XviD 64\n\nAudio\nID                                       : 1\nFormat                                   : AC-3\nFormat/Info                              : Audio Coding 3\nMode extension                           : CM (complete main)\nCodec ID                                 : 2000\nDuration                                 : 2h 21mn\nBit rate mode                            : Constant\nBit rate                                 : 192 Kbps\nChannel(s)                               : 2 channels\nChannel positions                        : Front: L R\nSampling rate                            : 44.1 KHz\nBit depth                                : 16 bits\nCompression mode                         : Lossy\nStream size                              : 194 MiB (17%)\nAlignment                                : Aligned on interleaves\nInterleave, duration                     : 488 ms (12.19 video frames)\nInterleave, preload duration             : 975 ms\n\n &lt;a href=&quot;\nhttp://www.shotpix.com/images/91738010976671073993.jpg&quot; rel=&quot;nofollow&quot; target=&quot;_NEW&quot;&gt;\nhttp://www.shotpix.com/images/91738010976671073993.jpg&lt;/a&gt; &lt;a href=&quot;\nhttp://www.shotpix.com/images/38608447572375265119.jpg&quot; rel=&quot;nofollow&quot; target=&quot;_NEW&quot;&gt;\nhttp://www.shotpix.com/images/38608447572375265119.jpg&lt;/a&gt; &lt;a href=&quot;\nhttp://www.shotpix.com/images/02796609640268256980.jpg&quot; rel=&quot;nofollow&quot; target=&quot;_NEW&quot;&gt;\nhttp://www.shotpix.com/images/02796609640268256980.jpg&lt;/a&gt; &lt;a href=&quot;\nhttp://www.shotpix.com/images/21293512369020904468.jpg&quot; rel=&quot;nofollow&quot; target=&quot;_NEW&quot;&gt;\nhttp://www.shotpix.com/images/21293512369020904468.jpg&lt;/a&gt; &lt;a href=&quot;\nhttp://www.shotpix.com/images/66977336381973609910.jpg&quot; rel=&quot;nofollow&quot; target=&quot;_NEW&quot;&gt;\nhttp://www.shotpix.com/images/66977336381973609910.jpg&lt;/a&gt; &lt;a href=&quot;\nhttp://www.shotpix.com/images/73388307791883061005.jpg&quot; rel=&quot;nofollow&quot; target=&quot;_NEW&quot;&gt;\nhttp://www.shotpix.com/images/73388307791883061005.jpg&lt;/a&gt;\n\n &lt;a href=&quot;\nhttp://picturestack.com/267/765/Y8Rthanksmln.gif&quot; rel=&quot;nofollow&quot; target=&quot;_NEW&quot;&gt;\nhttp://picturestack.com/267/765/Y8Rthanksmln.gif&lt;/a&gt;\n &lt;a href=&quot;\nhttp://i.minus.com/jbdy4dIfjMkrDT.PNG&quot; rel=&quot;nofollow&quot; target=&quot;_NEW&quot;&gt;\nhttp://i.minus.com/jbdy4dIfjMkrDT.PNG&lt;/a&gt;","torrent":{"xt":"urn:btih:8aaa134536198521f5fc86b346cf137f12f3d677","amp;dn":"Insaan+Jaag+Utha+%281959%29","amp;tr":["udp%3A%2F%2Ftracker.openbittorrent.com%3A80","udp%3A%2F%2Fopen.demonii.com%3A1337","udp%3A%2F%2Ftracker.coppersurfer.tk%3A6969","udp%3A%2F%2Fexodus.desync.com%3A6969"],"infoHash":"8aaa134536198521f5fc86b346cf137f12f3d677","infoHashBuffer":{"type":"Buffer","data":[138,170,19,69,54,25,133,33,245,252,134,179,70,207,19,127,18,243,214,119]},"announce":[],"urlList":[]}}